<svg width="34" height="24" viewBox="0 0 34 24" fill="none" xmlns="http://www.w3.org/2000/svg">
  <path fill="#fff" d="M0 0h34v24H0z"/>
  <path d="M5.133 16.999c0 .421.3.47.568.47 1.181 0 1.569-.891 1.569-1.706 0-1.022-.656-1.76-1.71-1.76-.226 0-.328.016-.427.022v2.974zm-.535-2.563c0-.492-.256-.46-.502-.464v-.142c.213.01.431.01.645.01.23 0 .542-.01.946-.01 1.415 0 2.186.945 2.186 1.913 0 .541-.317 1.902-2.251 1.902-.279 0-.536-.011-.793-.011-.245 0-.486.006-.733.011v-.142c.328-.032.486-.044.502-.415v-2.652zm4.051-.131a.28.28 0 01-.268-.273c0-.138.131-.263.268-.263.141 0 .268.115.268.263 0 .147-.12.273-.268.273zm-.586 3.197h.104c.153 0 .262 0 .262-.181v-1.482c0-.24-.082-.273-.285-.382v-.088c.257-.078.563-.18.585-.197a.2.2 0 01.099-.028c.027 0 .038.032.038.076v2.102c0 .181.12.181.273.181h.093v.142c-.186 0-.377-.011-.573-.011-.197 0-.394.006-.596.011v-.143zm1.689-1.627c0-.201-.06-.257-.316-.36v-.104c.234-.076.458-.147.721-.262.017 0 .033.011.033.054v.356c.312-.224.58-.41.947-.41.463 0 .628.339.628.765v1.41c0 .181.12.181.273.181h.1v.142c-.193 0-.383-.011-.58-.011-.197 0-.394.005-.591.01v-.14h.099c.153 0 .262 0 .262-.182v-1.415c0-.312-.19-.465-.502-.465-.176 0-.454.142-.635.262v1.618c0 .181.12.181.273.181h.098v.142c-.19 0-.382-.011-.58-.011-.195 0-.392.005-.59.01v-.14h.1c.153 0 .262 0 .262-.182v-1.449h-.002zm3.767.087c.136 0 .152-.071.152-.138 0-.278-.17-.502-.475-.502-.333 0-.563.246-.628.64h.95zm-.967.175c-.011.05-.011.13 0 .318.032.519.366.945.802.945.301 0 .536-.164.739-.365l.076.076c-.25.333-.562.618-1.01.618-.87 0-1.044-.842-1.044-1.192 0-1.072.722-1.388 1.103-1.388.444 0 .919.28.924.858 0 .034 0 .065-.005.099l-.05.032h-1.535zm1.715 1.367h.148c.152 0 .262 0 .262-.181v-1.536c0-.169-.202-.203-.284-.247v-.082c.399-.17.618-.312.668-.312.031 0 .048.017.048.071v.492h.011c.137-.212.366-.563.7-.563.136 0 .311.093.311.29 0 .147-.103.279-.256.279-.17 0-.17-.132-.362-.132a.462.462 0 00-.398.455v1.286c0 .18.109.18.262.18h.306v.143c-.3-.006-.529-.011-.764-.011-.224 0-.454.005-.65.01v-.142h-.002zm2.104-.619c.071.36.29.667.69.667.321 0 .442-.197.442-.388 0-.645-1.192-.438-1.192-1.317 0-.306.247-.7.848-.7.175 0 .41.049.623.158l.038.557h-.126c-.054-.344-.245-.54-.596-.54-.218 0-.425.126-.425.36 0 .64 1.267.443 1.267 1.302 0 .36-.289.744-.94.744-.218 0-.476-.077-.666-.186l-.06-.628.097-.03zm6.504-2.066h-.137c-.103-.64-.557-.896-1.17-.896-.629 0-1.542.42-1.542 1.732 0 1.105.787 1.897 1.63 1.897.54 0 .989-.371 1.098-.945l.126.032-.126.798c-.23.142-.848.29-1.209.29-1.279 0-2.087-.824-2.087-2.055 0-1.121 1-1.924 2.071-1.924.443 0 .87.143 1.29.29l.056.78zm.198 2.684h.103c.153 0 .263 0 .263-.181v-3.044c0-.356-.083-.366-.29-.427v-.087c.219-.071.448-.17.563-.236.06-.032.104-.06.12-.06.033 0 .043.032.043.076v3.78c0 .18.12.18.274.18h.092v.142c-.186 0-.376-.011-.573-.011-.197 0-.393.006-.595.011v-.143zm3.509-.158c0 .099.06.103.152.103.066 0 .147-.005.22-.005v.115a5.58 5.58 0 00-.789.169l-.027-.017v-.443c-.328.268-.58.46-.968.46-.295 0-.601-.192-.601-.651v-1.4c0-.141-.022-.279-.328-.306v-.103c.197-.006.633-.038.705-.038.06 0 .06.038.06.158v1.41c0 .164 0 .633.476.633.186 0 .43-.141.66-.333v-1.47c0-.11-.262-.169-.458-.224v-.098c.492-.034.799-.076.853-.076.044 0 .044.038.044.098v2.018zm1.087-.317c0 .207.197.558.563.558.584 0 .83-.574.83-1.06 0-.59-.447-1.083-.873-1.083-.203 0-.372.132-.52.257v1.328zm0-1.487c.218-.185.513-.394.814-.394.634 0 1.017.553 1.017 1.149 0 .716-.525 1.431-1.308 1.431-.404 0-.616-.131-.76-.19l-.163.125-.114-.06c.048-.321.076-.639.076-.972v-2.35c0-.355-.082-.365-.29-.426v-.088c.218-.07.448-.169.563-.235.06-.033.103-.061.12-.061.033 0 .044.034.044.076v1.995h.001zM4.09 20.824h.041c.107 0 .22-.015.22-.17v-1.558c0-.156-.113-.17-.22-.17H4.09v-.09c.116 0 .295.013.44.013.148 0 .326-.012.467-.012v.089h-.042c-.107 0-.22.014-.22.17v1.558c0 .155.114.17.22.17h.042v.088c-.143 0-.322-.01-.47-.01-.146 0-.321.01-.437.01v-.088z" fill="#000"/>
  <path d="M4.983 20.902v-.063h-.028c-.106 0-.233-.02-.233-.182v-1.558c.001-.165.127-.183.233-.183h.028v-.063c-.137 0-.31.012-.453.012-.142 0-.312-.01-.428-.012v.063h.028c.106 0 .233.018.233.183v1.558c0 .164-.126.182-.233.182h-.028v.063c.115-.001.284-.012.424-.012.146 0 .318.01.457.012zm.014.025c-.144 0-.322-.013-.47-.013-.145 0-.32.013-.436.013h-.014v-.115h.055c.108-.002.206-.011.207-.157v-1.558c0-.145-.099-.155-.207-.156h-.054v-.116h.014c.117 0 .295.011.44.011.147 0 .326-.011.467-.011h.014v.116h-.056c-.108.002-.207.011-.207.156v1.558c.001.146.1.155.207.157h.056v.115h-.016zm2.043-.601l.006-.006v-1.114c0-.244-.17-.28-.26-.28h-.065v-.09c.14 0 .277.013.417.013.121 0 .244-.012.366-.012v.089H7.46c-.125 0-.265.023-.265.378v1.353c0 .105.004.208.018.3h-.112L5.57 19.25v1.226c0 .259.05.348.279.348h.05v.088c-.128 0-.255-.01-.383-.01-.134 0-.27.01-.404.01v-.088h.041c.205 0 .268-.14.268-.378v-1.253a.266.266 0 00-.27-.266h-.038v-.09c.112 0 .228.013.342.013.089 0 .176-.012.264-.012l1.32 1.488z" fill="#000"/>
  <path d="M7.032 20.322l-.002-.003.002.003zm.008.006l.01-.01-.01.01zm.059.618h.098a1.964 1.964 0 01-.016-.287v-1.353c0-.357.15-.391.278-.391h.032v-.063c-.118.001-.235.011-.353.011-.136 0-.269-.011-.403-.011v.063h.053c.091 0 .271.04.271.293l-.004 1.124-.006.006-.01.01-1.323-1.496c-.087 0-.174.011-.264.011-.11 0-.22-.011-.329-.011v.063h.026a.28.28 0 01.283.281v1.253c0 .238-.067.39-.28.391l-.03-.001v.064c.128-.001.261-.012.392-.012.124 0 .247.01.37.012v-.063h-.037c-.234-.001-.292-.102-.293-.361V19.22L7.1 20.946zm.112.026l-.122-.005-1.51-1.682v1.192c.003.26.043.333.267.335h.064v.115h-.014c-.128 0-.256-.013-.383-.013-.133 0-.27.013-.405.013h-.013v-.115h.055c.197-.001.252-.127.255-.365v-1.253a.254.254 0 00-.258-.254h-.052v-.115h.013c.114 0 .23.011.342.011.089 0 .174-.011.274-.006l1.307 1.47v-1.093c0-.237-.16-.265-.245-.267h-.079v-.115h.014c.14 0 .276.011.416.011.12 0 .243-.011.366-.011h.013v.116H7.46c-.123.003-.249.013-.252.365v1.353c0 .103.003.208.018.298l.002.015h-.016zm.738-1.986c-.223 0-.232.054-.277.27h-.09c.012-.083.028-.166.037-.252.012-.083.018-.166.018-.252h.07c.024.089.099.086.18.086H9.42c.081 0 .155-.004.161-.093l.071.013c-.011.08-.024.16-.033.24-.005.08-.005.16-.005.242l-.09.032c-.005-.11-.02-.286-.219-.286H8.82v1.582c0 .23.105.255.246.255h.057v.09c-.116 0-.325-.012-.486-.012-.179 0-.387.011-.503.011v-.088h.057c.164 0 .246-.015.246-.25v-1.589H7.95v.001z" fill="#000"/>
  <path d="M9.122 20.925c-.118 0-.326-.011-.486-.011-.178 0-.386.011-.503.011h-.012v-.114h.068c.165-.004.23-.006.233-.237v-1.576h-.475v-.026h.5v1.602c0 .239-.095.262-.259.263h-.044v.064c.117-.002.318-.012.491-.012.156 0 .354.012.472.012v-.064h-.044c-.144 0-.26-.035-.26-.269v-1.595h.5c.2.001.227.17.233.282l.064-.024c0-.078 0-.155.006-.234.009-.077.019-.152.03-.229l-.045-.008c-.014.087-.098.092-.172.09H7.87c-.07 0-.147-.003-.174-.086h-.05c0 .082-.005.162-.016.24-.01.083-.023.16-.034.24h.063c.04-.208.064-.275.287-.272v.026c-.22.005-.215.042-.263.261l-.002.01h-.114l.001-.015c.012-.084.027-.167.036-.254a1.72 1.72 0 00.018-.25v-.013h.095l.002.009c.02.075.075.075.15.076h1.55c.083 0 .143-.002.148-.08l.001-.013.014.002.084.014-.002.013c-.011.08-.024.16-.033.24-.005.08-.005.16-.005.24v.009l-.01.003-.104.038-.001-.016c-.008-.112-.02-.274-.207-.274h-.475v1.57c.003.223.092.24.234.242h.07v.115h-.011zm.625-.101h.042c.107 0 .22-.015.22-.17v-1.558c0-.156-.113-.17-.22-.17h-.042v-.09c.182 0 .491.013.741.013s.56-.012.761-.012c-.006.128-.002.324.007.454l-.09.024c-.015-.194-.05-.348-.363-.348h-.413v.78h.354c.179 0 .217-.1.235-.262h.089a7.209 7.209 0 000 .687l-.09.018c-.017-.178-.026-.294-.231-.294h-.356v.692c0 .194.172.194.363.194.357 0 .514-.024.603-.363l.083.02a6.42 6.42 0 00-.1.474c-.19 0-.532-.012-.799-.012-.268 0-.621.012-.791.012v-.09h-.003z" fill="#000"/>
  <path d="M11.328 20.9c.026-.151.06-.3.097-.45l-.059-.015c-.089.333-.261.362-.612.36-.187 0-.375 0-.376-.206v-.706h.369c.208-.002.229.123.243.293l.064-.014a6.44 6.44 0 010-.664h-.064c-.017.155-.065.264-.246.262h-.367v-.805h.426c.31-.002.36.158.374.345l.064-.018a4.646 4.646 0 01-.005-.431c-.202.001-.504.011-.75.011-.243 0-.544-.011-.726-.011v.063h.029c.106 0 .232.019.233.183v1.558c-.001.165-.127.183-.233.184h-.03v.063c.174 0 .517-.011.779-.011.264-.003.598.009.79.009zm.011.026c-.191 0-.534-.013-.8-.013-.267 0-.62.013-.79.013h-.013v-.114h.054c.108-.002.206-.011.207-.157v-1.558c0-.145-.099-.155-.207-.156h-.054v-.116h.012c.182 0 .491.011.741.011s.559-.011.761-.011h.014v.014a4.929 4.929 0 00.006.454v.01l-.01.003-.105.027v-.016c-.018-.193-.044-.333-.35-.337h-.401v.753h.34c.172-.002.202-.088.224-.25v-.012h.117v.014a7.213 7.213 0 000 .686v.012l-.012.002-.103.02-.001-.013c-.02-.182-.022-.282-.22-.284h-.344v.68c0 .181.156.18.35.181.358-.002.502-.02.59-.353l.004-.013.012.003.096.024-.002.013a7.24 7.24 0 00-.101.471l-.003.01h-.01v.002zm.883-1.084h.145c.298 0 .458-.113.458-.464 0-.265-.17-.433-.434-.433-.09 0-.128.009-.17.012v.885zm-.38-.69c0-.216-.12-.224-.213-.224h-.054v-.09c.096 0 .28.013.462.013.178 0 .32-.012.478-.012.374 0 .708.101.708.523 0 .268-.179.432-.413.524l.51.76c.082.127.142.162.287.18v.089c-.098 0-.193-.011-.291-.011-.093 0-.188.01-.28.01-.229-.3-.425-.62-.618-.963h-.196v.637c0 .229.107.238.243.238h.054v.089c-.17 0-.342-.011-.511-.011-.143 0-.283.01-.431.01v-.088h.054c.11 0 .211-.05.211-.16v-1.513z" fill="#000"/>
  <path d="M12.367 19.83c.294-.003.442-.104.446-.45-.003-.26-.164-.421-.423-.422-.08 0-.118.008-.156.011v.861h.133zm-.145.026h-.014v-.91l.011-.002c.041-.003.082-.011.171-.011.272 0 .447.176.449.447-.002.355-.171.476-.471.476h-.146zm0 .081h.203l.004.007c.193.342.39.663.608.957.09 0 .185-.013.279-.013.095 0 .187.01.28.012v-.066c-.14-.017-.206-.06-.287-.182l-.518-.774.015-.006c.233-.092.405-.251.405-.512 0-.413-.32-.51-.694-.51-.157 0-.3.012-.479.012-.174 0-.351-.011-.448-.012v.063h.04c.093 0 .225.015.225.238v1.512c0 .12-.112.174-.224.174h-.04v.063c.142 0 .278-.012.418-.012.166 0 .334.012.499.012v-.063h-.04c-.136 0-.258-.017-.258-.253v-.65h.012v.003zm1.386.99c-.1 0-.195-.013-.293-.013-.09 0-.186.013-.29.007-.228-.3-.423-.62-.615-.958h-.176v.623c.003.224.094.221.23.225h.067v.116h-.013c-.17 0-.344-.013-.511-.013-.142 0-.282.013-.431.013h-.014v-.115h.068c.106-.001.197-.047.198-.148v-1.512c-.003-.21-.106-.209-.198-.212h-.067v-.115h.014c.097 0 .28.011.461.011.178 0 .32-.011.479-.011.375.001.72.104.72.536 0 .268-.178.436-.406.53l.5.749c.083.123.135.154.279.173l.011.001v.113h-.014zm2.019-.601l.006-.006v-1.114c0-.244-.17-.28-.258-.28h-.065v-.09c.14 0 .275.013.416.013.123 0 .243-.012.366-.012v.089h-.045c-.125 0-.264.023-.264.378v1.353c0 .105.003.208.018.3h-.113l-1.531-1.707v1.226c0 .259.05.348.28.348h.05v.088c-.127 0-.256-.01-.384-.01-.134 0-.271.01-.404.01v-.088h.041c.205 0 .268-.14.268-.378v-1.253a.266.266 0 00-.27-.266H13.7v-.09c.112 0 .23.013.342.013.089 0 .176-.012.265-.012l1.32 1.488z" fill="#000"/>
  <path d="M15.62 20.32l-.003-.003.002.004zm.007.006l.01-.009-.01.01zm.06.619h.098a1.964 1.964 0 01-.016-.288v-1.353c0-.356.15-.39.278-.39h.031v-.063c-.117 0-.234.01-.352.01-.136 0-.269-.01-.404-.01v.063h.053c.091 0 .271.04.271.292l-.004 1.125-.006.006-.009.01-1.323-1.496c-.089 0-.174.01-.264.01-.11 0-.222-.01-.33-.01v.063h.026a.28.28 0 01.282.28v1.252c0 .238-.067.39-.28.392h-.03v.063c.13-.002.262-.013.393-.013.124 0 .248.011.371.013v-.063h-.037c-.234 0-.293-.103-.293-.362v-1.258l1.545 1.727zm.112.025l-.122-.004-1.51-1.682v1.191c.003.259.043.332.267.335h.063v.115h-.013c-.128 0-.256-.012-.383-.012-.133 0-.27.012-.405.012h-.013v-.114h.055c.196-.002.252-.128.254-.365v-1.252a.253.253 0 00-.256-.254h-.052v-.116h.014c.113 0 .23.01.342.01.088 0 .173-.01.273-.007l1.307 1.472v-1.094c0-.236-.159-.265-.245-.266h-.079v-.116h.012c.141 0 .278.01.417.01.122 0 .243-.01.366-.01h.013v.116h-.057c-.123.003-.249.013-.252.364v1.353c0 .104.002.207.018.299v.014H15.8v.001zm1.205-1.798h-.007l-.276.842h.556l-.273-.842zm-.435 1.317c-.03.101-.066.179-.066.232 0 .09.125.104.223.104h.034v.09a5.058 5.058 0 00-.681 0v-.09h.018c.116 0 .213-.068.257-.193l.477-1.365c.039-.11.092-.259.11-.369a1.45 1.45 0 00.27-.128c.01-.004.015-.006.024-.006.009 0 .014 0 .021.01.01.023.018.05.027.073l.547 1.556c.036.104.071.214.11.304.035.084.098.118.196.118h.018v.09a7.989 7.989 0 00-.856 0v-.09h.032c.068 0 .185-.012.185-.086a.983.983 0 00-.06-.214l-.116-.345h-.675l-.095.309z" fill="#000"/>
  <path d="M16.99 19.173l.007-.002-.007.002zm-.252.826h.521L17 19.201l-.262.796zm-.035.025l.285-.868h.016v.014l-.004.001.004-.001v-.014h.009l.282.868h-.592zm.608.875a8.453 8.453 0 01.831 0v-.062h-.005c-.102.001-.172-.04-.208-.127-.038-.09-.075-.2-.11-.304l-.547-1.556c-.01-.023-.018-.05-.025-.07-.003-.004-.002-.004-.005-.004h-.005c-.006 0-.01.002-.017.003a1.128 1.128 0 01-.264.12c-.018.112-.073.26-.11.371l-.477 1.364a.283.283 0 01-.27.203h-.005v.062a5.284 5.284 0 01.654 0v-.062h-.019c-.097-.001-.232-.012-.236-.117 0-.058.037-.135.065-.235l.012.003-.012-.004.098-.318h.694l.119.354c.034.095.06.174.06.218-.004.091-.129.098-.196.1h-.02v.061h-.002zm.842.026c-.134-.006-.268-.012-.41-.012-.146 0-.293.006-.445.012l-.014.001v-.116h.046c.069 0 .172-.016.172-.073a.944.944 0 00-.06-.21l-.113-.337h-.656l-.092.3c-.03.102-.067.18-.066.229.002.073.113.09.21.09h.047v.116l-.013-.001a7.213 7.213 0 00-.36-.012c-.105 0-.213.006-.32.012l-.013.001v-.116h.031c.11 0 .202-.063.245-.185l.476-1.365c.038-.11.092-.258.118-.377a1.53 1.53 0 00.27-.127.069.069 0 01.029-.007c.006 0 .023 0 .032.017l.027.075.547 1.556c.035.103.071.214.11.302.034.078.089.11.184.11h.03v.116l-.012.001zm.132-1.939c-.223 0-.232.054-.277.27h-.089c.011-.083.027-.166.036-.252.012-.083.017-.166.017-.252h.072c.024.089.098.086.178.086h1.534c.08 0 .155-.004.16-.093l.071.013-.032.24c-.007.08-.007.16-.007.242l-.09.032c-.005-.11-.02-.286-.219-.286h-.487v1.582c0 .23.105.255.246.255h.057v.09c-.116 0-.324-.012-.485-.012-.178 0-.388.011-.504.011v-.088h.057c.164 0 .246-.015.246-.25v-1.589h-.484v.001z" fill="#000"/>
  <path d="M19.457 20.925c-.117 0-.326-.011-.485-.011-.178 0-.386.011-.502.011h-.014v-.114h.07c.164-.004.23-.006.234-.237v-1.576h-.474v-.026h.5v1.602c0 .239-.097.262-.26.262h-.044v.063c.117 0 .317-.012.49-.012.155 0 .354.011.471.012v-.063H19.4c-.143 0-.259-.034-.259-.269v-1.595h.502c.199.001.226.17.231.282l.064-.024c0-.078 0-.155.007-.233a5.04 5.04 0 01.03-.229l-.044-.008c-.014.087-.098.092-.171.09h-1.55c-.07.002-.147-.003-.174-.086h-.048a1.918 1.918 0 01-.018.242c-.008.082-.023.16-.034.239H18c.04-.207.066-.275.288-.272V19c-.22.004-.216.042-.264.261l-.002.01h-.115l.002-.014c.012-.084.027-.167.036-.253.012-.084.018-.166.018-.252v-.013h.094l.003.009c.02.075.075.075.15.077h1.55c.082-.002.141-.003.147-.08v-.015l.014.002.084.014-.002.013c-.012.08-.024.16-.033.24-.005.08-.005.16-.005.24v.009l-.01.003-.104.038v-.016c-.008-.112-.02-.274-.207-.274h-.475v1.57c.003.223.092.24.234.242h.07v.114h-.016zm.642-.101h.041c.107 0 .22-.015.22-.17v-1.558c0-.156-.113-.17-.22-.17h-.04v-.09c.116 0 .293.013.44.013.148 0 .327-.012.467-.012v.089h-.042c-.108 0-.22.014-.22.17v1.558c0 .155.112.17.22.17h.042v.088c-.143 0-.322-.01-.47-.01-.147 0-.321.01-.437.01v-.088z" fill="#000"/>
  <path d="M20.992 20.9v-.063h-.028c-.107 0-.233-.02-.233-.183v-1.558c0-.164.126-.182.233-.183h.028v-.063c-.137 0-.31.011-.453.011-.141 0-.312-.011-.427-.011v.063h.03c.105 0 .231.019.232.183v1.558c0 .165-.127.183-.233.183h-.029v.063c.115-.002.283-.012.425-.012.144 0 .315.012.455.012zm.014.026c-.144 0-.322-.013-.47-.013-.146 0-.322.013-.437.013h-.013v-.114h.054c.107-.002.206-.011.207-.157v-1.558c0-.145-.099-.155-.207-.156h-.054v-.116h.013c.116 0 .294.011.44.011.148 0 .326-.011.467-.011h.012v.116h-.054c-.109.002-.207.011-.208.156v1.558c.001.146.1.156.208.157h.054v.114h-.012zm1.23-.1c.578 0 .678-.508.678-.942 0-.434-.234-.961-.728-.961-.52 0-.676.464-.676.862.001.533.245 1.041.726 1.041zm-.045-2.034c.634 0 1.14.393 1.14 1.027 0 .684-.491 1.14-1.124 1.14-.63 0-1.112-.429-1.112-1.07 0-.617.478-1.097 1.096-1.097z" fill="#000"/>
  <path d="M21.498 19.786c0-.4.157-.876.688-.876.505.001.74.537.741.974 0 .433-.102.954-.69.954v-.026c.564 0 .664-.496.664-.93 0-.43-.232-.946-.716-.947-.51 0-.661.453-.662.849 0 .53.242 1.027.712 1.027v.026c-.492.003-.736-.515-.737-1.051zm-.417.104a1.096 1.096 0 011.11-1.11v.028a1.07 1.07 0 00-1.085 1.084c.001.632.476 1.053 1.101 1.054.627 0 1.11-.448 1.111-1.125 0-.626-.497-1.012-1.127-1.014v-.027c.639.002 1.152.398 1.153 1.04-.001.69-.498 1.15-1.137 1.151-.636 0-1.125-.434-1.126-1.08zm4.254.436l.006-.006v-1.114c0-.244-.17-.28-.259-.28h-.065v-.09c.14 0 .277.013.415.013.123 0 .244-.012.366-.012v.089h-.045c-.125 0-.265.023-.265.378v1.353c0 .105.004.208.018.3h-.112l-1.532-1.707v1.226c0 .259.05.348.279.348h.05v.088c-.128 0-.255-.01-.383-.01-.134 0-.272.01-.404.01v-.088h.041c.206 0 .268-.14.268-.378v-1.253a.266.266 0 00-.271-.266h-.038v-.09c.112 0 .228.013.342.013.089 0 .174-.012.264-.012l1.325 1.488z" fill="#000"/>
  <path d="M25.329 20.32l-.003-.003.003.004zm.006.006l.01-.009-.01.01zm.06.619h.098a2.13 2.13 0 01-.016-.288v-1.353c0-.358.15-.39.278-.39h.033v-.063c-.118 0-.235.01-.353.01-.136 0-.268-.01-.403-.01v.063h.051c.093 0 .272.041.272.292l-.004 1.125-.005.006-.01.01-1.323-1.496c-.088 0-.175.01-.265.01-.109 0-.222-.01-.33-.01v.063h.026a.28.28 0 01.284.28v1.253c0 .238-.067.39-.28.39h-.03v.064c.13-.002.262-.013.392-.013.124 0 .248.011.37.013v-.063h-.038c-.233 0-.291-.103-.291-.362v-1.258l1.544 1.727zm.113.025l-.123-.004-1.51-1.682v1.192c.004.26.043.332.266.335h.064v.114h-.012c-.129 0-.257-.012-.384-.012-.133 0-.27.012-.405.012h-.013v-.114h.054c.196 0 .253-.128.255-.364v-1.253a.254.254 0 00-.258-.254h-.05v-.116h.012c.113 0 .23.01.342.01.088 0 .173-.01.275-.006l1.307 1.471v-1.094c-.002-.236-.16-.264-.247-.266h-.079v-.116h.014c.14 0 .277.01.415.01.122 0 .243-.01.367-.01h.013v.116h-.058c-.123.003-.249.014-.252.364v1.353c0 .104.002.209.017.299l.002.014h-.012v.001zm1.204-1.798h-.005l-.277.842h.557l-.275-.842zm-.434 1.317c-.03.101-.066.179-.066.232 0 .09.125.104.223.104h.033v.09a5.055 5.055 0 00-.681 0v-.09h.017c.117 0 .215-.068.259-.193l.477-1.365c.038-.11.092-.259.11-.369.095-.032.213-.091.27-.128a.056.056 0 01.024-.006c.01 0 .015 0 .02.01.01.023.018.05.027.073l.547 1.556c.037.104.071.214.11.304.037.084.099.118.197.118h.018v.09a7.994 7.994 0 00-.857 0v-.09h.033c.067 0 .184-.012.184-.086a.979.979 0 00-.06-.214l-.115-.345h-.676l-.094.309z" fill="#000"/>
  <path d="M26.7 19.175l.006-.003-.006.003zm-.253.825h.52l-.26-.797-.26.797zm-.036.026l.285-.868h.016v.013l-.003.002.003-.002v-.013h.01l.28.868h-.591zm.607.874c.148-.005.292-.01.434-.01.138 0 .268.005.397.01v-.061h-.004c-.1 0-.171-.04-.208-.128-.04-.09-.075-.2-.11-.304l-.548-1.555a1.597 1.597 0 01-.025-.071c-.002-.004-.002-.004-.004-.004h-.006c-.007 0-.01.003-.017.005a1.156 1.156 0 01-.264.118c-.018.113-.072.261-.11.372l-.477 1.364a.283.283 0 01-.271.203H25.8v.061c.103-.005.205-.01.309-.01.115 0 .233.005.347.01v-.061h-.02c-.098-.002-.233-.012-.237-.117.001-.06.037-.136.066-.236l.013.004-.013-.005.098-.317h.694l.12.353c.032.096.059.175.059.218-.005.092-.13.098-.197.1h-.02v.061zm.844.026c-.134-.005-.268-.012-.41-.012-.145 0-.294.007-.446.012l-.013.002v-.118h.045c.068 0 .17-.015.17-.073a.908.908 0 00-.059-.21l-.113-.337h-.656l-.092.3c-.03.103-.065.18-.065.228 0 .073.111.091.209.091h.045v.116h-.014c-.118-.006-.24-.013-.359-.013-.107 0-.212.007-.32.012l-.014.001v-.115h.03c.11 0 .204-.064.248-.184l.476-1.366c.038-.11.093-.258.118-.376.094-.032.213-.092.27-.128a.062.062 0 01.029-.007.033.033 0 01.032.017c.01.024.018.05.027.074l.547 1.556c.037.104.072.214.11.303.036.079.09.11.184.11h.03v.114l-.01.003zm.751-.306c0 .12.082.156.177.169.122.009.256.009.393-.007a.418.418 0 00.285-.161.675.675 0 00.092-.214h.086c-.033.17-.074.337-.11.506-.262 0-.524-.012-.785-.012-.262 0-.524.012-.785.012v-.09h.042c.107 0 .224-.014.224-.199v-1.528c0-.156-.116-.17-.224-.17h-.042v-.09c.158 0 .312.013.47.013.152 0 .3-.012.452-.012v.089h-.074c-.113 0-.201.003-.201.16v1.535z" fill="#000"/>
  <path d="M29.525 20.9c.035-.161.074-.319.106-.479h-.06a.688.688 0 01-.092.21.44.44 0 01-.295.165 2.286 2.286 0 01-.396.006c-.097-.01-.19-.052-.19-.18v-1.534c0-.165.105-.173.216-.173h.06v-.063c-.146.001-.29.012-.438.012-.155 0-.304-.01-.457-.012v.063h.028c.106 0 .236.02.236.182v1.53c0 .192-.13.212-.236.212h-.028v.063c.256 0 .514-.011.772-.011.259-.001.518.01.774.01zm.012.027c-.263 0-.525-.013-.785-.013-.261 0-.523.013-.786.013h-.012v-.115h.054c.108-.002.21-.01.21-.186v-1.529c0-.145-.102-.154-.21-.156h-.054v-.116h.012c.159 0 .313.011.47.011.152 0 .3-.011.453-.011h.013v.116h-.087c-.115.003-.187-.002-.19.147v1.535c.002.111.074.14.168.154a2.613 2.613 0 00.389-.006.417.417 0 00.277-.155.675.675 0 00.09-.21l.002-.01h.113l-.002.016c-.034.17-.075.336-.11.506l-.003.01h-.012v-.001zm.023-1.86h.037c.041 0 .06-.03.06-.08s-.03-.068-.06-.068h-.036v.148zm-.105.164v-.015c.038-.005.045-.004.045-.028v-.232c0-.032-.004-.044-.044-.041v-.016h.16c.055 0 .105.026.105.083 0 .046-.03.081-.074.095l.052.072a.352.352 0 00.068.074v.01h-.06c-.03 0-.056-.062-.113-.144h-.035v.104c0 .02.007.019.046.024v.015h-.15v-.001zm.155.089c.14 0 .248-.12.248-.255a.252.252 0 00-.248-.255c-.14 0-.248.12-.248.255 0 .136.107.255.248.255zm0-.568c.179 0 .313.138.313.315a.306.306 0 01-.313.311.306.306 0 01-.313-.311c0-.177.134-.315.313-.315z" fill="#000"/>
  <path d="M11.035 8.335a5.036 5.036 0 1110.073 0 5.036 5.036 0 01-10.073 0z" fill="#fff"/>
  <path d="M16.079 13.463c-2.887.013-5.263-2.325-5.263-5.172 0-3.111 2.375-5.262 5.263-5.262h1.353c2.852 0 5.455 2.15 5.455 5.262 0 2.846-2.603 5.172-5.455 5.172h-1.353zM16.09 3.46a4.777 4.777 0 10.003 9.553 4.777 4.777 0 00-.003-9.553zm-1.084 7.6V5.414a3.033 3.033 0 00-1.943 2.824 3.03 3.03 0 001.943 2.825zm4.111-2.824a3.03 3.03 0 00-1.944-2.825v5.65a3.032 3.032 0 001.944-2.825z" fill="#004A98"/>
</svg>
